<svg width="1752" height="1834" viewBox="0 0 1752 1834" fill="none" xmlns="http://www.w3.org/2000/svg">
<path d="M1698.19 1376.72C1722.64 1425.37 1717.48 1487.28 1709.63 1537.09C1702.06 1587.29 1692.09 1625.77 1674.42 1659.35C1657.08 1692.98 1632.1 1721.36 1600.59 1741.23C1569.45 1760.8 1531.45 1771.8 1487.4 1775.73C1443.3 1779.99 1392.5 1777.08 1345.26 1753C1297.98 1729.26 1253.96 1684.3 1235.83 1628.65C1218.08 1572.71 1226.23 1506.07 1261.74 1464.41C1296.88 1423.04 1359.38 1406.65 1414.4 1376.44C1469.76 1346.27 1517.69 1301.94 1568.86 1297.33C1619.99 1293.06 1674.03 1328.45 1698.19 1376.72Z" fill="#E6F0F9"/>
<path d="M1710.19 185.72C1734.64 234.372 1729.48 296.279 1721.63 346.09C1714.06 396.286 1704.09 434.771 1686.42 468.351C1669.08 501.979 1644.1 530.364 1612.59 550.226C1581.45 569.799 1543.45 580.801 1499.4 584.726C1455.3 588.989 1404.5 586.079 1357.26 562C1309.98 538.259 1265.96 493.301 1247.83 437.649C1230.08 381.708 1238.23 315.072 1273.74 273.413C1308.88 232.045 1371.38 215.653 1426.4 185.438C1481.76 155.27 1529.69 110.941 1580.86 106.33C1631.99 102.057 1686.03 137.454 1710.19 185.72Z" fill="#E6F0F9"/>
<path d="M497.192 808.72C521.636 857.372 516.477 919.279 508.63 969.09C501.064 1019.29 491.09 1057.77 473.423 1091.35C456.085 1124.98 431.098 1153.36 399.585 1173.23C368.446 1192.8 330.452 1203.8 286.402 1207.73C242.305 1211.99 191.495 1209.08 144.263 1185C96.9849 1161.26 52.9562 1116.3 34.8302 1060.65C17.0786 1004.71 25.2296 938.072 60.7416 896.413C95.879 855.045 158.377 838.653 213.404 808.438C268.758 778.27 316.686 733.941 367.86 729.33C418.987 725.057 473.031 760.454 497.192 808.72Z" fill="#E6F0F9"/>
<path d="M1520.61 1688.51C1516.74 1689.27 1516.47 1692.97 1513.48 1696.84C1509.19 1702.5 1510.85 1706.59 1514.17 1706.94C1517.48 1707.29 1519.52 1703.28 1523.05 1702.91C1526.49 1702.32 1529.81 1705.49 1532.77 1704.06C1535.79 1702.74 1536.01 1698.3 1530.05 1694.25C1526.06 1691.61 1524.51 1688.12 1520.61 1688.51Z" fill="#EACE6A"/>
<path d="M1510 1686.74C1512.63 1689.65 1513.54 1693.37 1512.05 1695.05C1510.46 1696.77 1507.04 1695.81 1504.41 1692.9C1501.78 1689.99 1500.87 1686.27 1502.36 1684.59C1503.95 1682.87 1507.37 1683.84 1510 1686.74Z" fill="#EACE6A"/>
<path d="M1529.37 1683.86C1527.71 1687.23 1528.15 1690.8 1530.24 1691.91C1532.34 1693.01 1535.42 1691.28 1537.08 1687.91C1538.74 1684.54 1538.3 1680.97 1536.21 1679.87C1534.01 1678.8 1530.92 1680.54 1529.37 1683.86Z" fill="#EACE6A"/>
<path d="M1517.66 1678.19C1519.12 1682.08 1518.3 1685.92 1515.98 1686.7C1513.66 1687.48 1510.61 1684.9 1509.15 1681.01C1507.69 1677.12 1508.51 1673.28 1510.83 1672.5C1513.15 1671.72 1516.2 1674.3 1517.66 1678.19Z" fill="#EACE6A"/>
<path d="M1519.71 1677.75C1519.69 1681.59 1521.66 1684.64 1524.01 1684.71C1526.46 1684.73 1528.41 1681.73 1528.48 1677.99C1528.5 1674.15 1526.53 1671.1 1524.18 1671.03C1521.79 1670.87 1519.74 1673.91 1519.71 1677.75Z" fill="#EACE6A"/>
<path d="M1391.55 1705.57C1388.9 1708.49 1390.81 1711.71 1390.65 1716.67C1390.49 1723.89 1394.16 1726.29 1397.01 1724.63C1399.86 1722.97 1399.19 1718.44 1401.79 1716.05C1404.19 1713.54 1408.66 1714.2 1410.21 1711.27C1411.85 1708.4 1409.47 1704.59 1402.39 1704.76C1397.68 1704.92 1394.44 1702.95 1391.55 1705.57Z" fill="#EACE6A"/>
<path d="M1382.06 1710.37C1385.84 1711.22 1388.71 1713.77 1388.48 1716.04C1388.2 1718.4 1384.92 1719.61 1381.15 1718.76C1377.38 1717.91 1374.51 1715.36 1374.73 1713.09C1375.01 1710.73 1378.29 1709.52 1382.06 1710.37Z" fill="#EACE6A"/>
<path d="M1395.87 1696.56C1396.48 1700.33 1398.88 1703.02 1401.19 1702.7C1403.5 1702.38 1404.96 1699.13 1404.35 1695.36C1403.74 1691.59 1401.33 1688.9 1399.02 1689.22C1396.65 1689.63 1395.19 1692.89 1395.87 1696.56Z" fill="#EACE6A"/>
<path d="M1383.26 1698.77C1386.66 1701.13 1388.21 1704.79 1386.81 1706.81C1385.42 1708.82 1381.49 1708.49 1378.09 1706.13C1374.69 1703.77 1373.13 1700.11 1374.53 1698.09C1375.93 1696.08 1379.85 1696.41 1383.26 1698.77Z" fill="#EACE6A"/>
<path d="M1384.64 1697.2C1386.83 1700.39 1390.17 1701.75 1392.07 1700.42C1394.04 1698.99 1393.87 1695.36 1391.77 1692.23C1389.58 1689.03 1386.25 1687.67 1384.34 1689C1382.34 1690.27 1382.45 1694 1384.64 1697.2Z" fill="#EACE6A"/>
<path d="M1431.07 1792.26C1423.42 1789.37 1418.69 1795.52 1409 1799.02C1394.98 1804.24 1393.18 1813.18 1398.56 1817.41C1403.94 1821.64 1412.13 1816.87 1418.72 1820.07C1425.4 1822.79 1427.55 1831.94 1434.38 1832.68C1441.17 1833.66 1446.67 1826.15 1440.93 1812.58C1437.01 1803.61 1438.33 1795.83 1431.07 1792.26Z" fill="#F06A8A"/>
<path d="M1414.56 1777.6C1415.81 1785.55 1413.11 1793.04 1408.57 1794.35C1403.8 1795.61 1398.96 1790.21 1397.71 1782.26C1396.47 1774.32 1399.17 1766.82 1403.71 1765.52C1408.47 1764.25 1413.32 1769.66 1414.56 1777.6Z" fill="#F06A8A"/>
<path d="M1451.73 1793.7C1444.94 1797.77 1441.6 1804.48 1443.98 1808.7C1446.36 1812.91 1453.74 1813.24 1460.53 1809.18C1467.31 1805.11 1470.66 1798.4 1468.28 1794.18C1465.66 1789.92 1458.27 1789.59 1451.73 1793.7Z" fill="#F06A8A"/>
<path d="M1437.81 1771.02C1435.87 1779.4 1430.01 1785.22 1425.07 1784.05C1420.12 1782.89 1417.76 1775.05 1419.69 1766.68C1421.63 1758.3 1427.49 1752.48 1432.44 1753.65C1437.38 1754.81 1439.75 1762.65 1437.81 1771.02Z" fill="#F06A8A"/>
<path d="M1441.9 1772.49C1437.43 1779.18 1437.36 1786.66 1441.39 1789.33C1445.64 1792.03 1452.51 1788.93 1456.93 1782.48C1461.4 1775.79 1461.47 1768.31 1457.45 1765.65C1453.47 1762.75 1446.37 1765.81 1441.9 1772.49Z" fill="#F06A8A"/>
<path d="M247.726 25.8216C246.867 29.6749 250.14 31.4099 252.482 35.7038C255.945 41.9084 260.35 42.0298 262.008 39.1383C263.665 36.2469 260.816 32.7614 261.895 29.3841C262.737 26.0003 266.974 24.2373 266.859 20.9446C266.863 17.6552 262.885 15.6658 256.783 19.4921C252.753 22.0832 248.938 22.0955 247.726 25.8216Z" fill="#EACE6A"/>
<path d="M241.84 34.8294C245.559 33.5896 249.335 34.2529 250.272 36.2922C251.205 38.4432 248.949 41.1776 245.229 42.4174C241.51 43.6573 237.735 42.9939 236.797 40.9546C235.864 38.8036 238.12 36.0692 241.84 34.8294Z" fill="#EACE6A"/>
<path d="M246.995 15.9335C249.41 18.8095 252.854 19.8409 254.711 18.3703C256.567 16.8996 256.219 13.3781 253.804 10.502C251.389 7.62597 247.944 6.59456 246.088 8.06522C244.227 9.65283 244.576 13.1743 246.995 15.9335Z" fill="#EACE6A"/>
<path d="M237.091 24.3739C241.237 24.6043 244.424 26.9 244.208 29.3343C243.991 31.7686 240.4 33.5289 236.253 33.2984C232.107 33.068 228.92 30.7723 229.136 28.338C229.353 25.9037 232.944 24.1434 237.091 24.3739Z" fill="#EACE6A"/>
<path d="M237.513 22.3164C241.022 23.8832 244.611 23.3036 245.61 21.1824C246.615 18.9482 244.655 15.9538 241.261 14.39C237.753 12.8231 234.164 13.4028 233.164 15.524C232.049 17.6421 234.004 20.7495 237.513 22.3164Z" fill="#EACE6A"/>
<path d="M211.43 150.844C213.034 154.445 216.747 153.992 221.232 156.134C227.776 159.184 231.45 156.785 231.075 153.508C230.7 150.232 226.284 149.031 225.146 145.689C223.809 142.478 226.218 138.65 224.153 136.055C222.188 133.394 217.745 134.042 215.046 140.594C213.302 144.973 210.191 147.146 211.43 150.844Z" fill="#EACE6A"/>
<path d="M212.008 161.46C214.307 158.349 217.791 156.745 219.777 157.861C221.827 159.071 221.62 162.559 219.321 165.67C217.021 168.781 213.538 170.386 211.552 169.269C209.501 168.06 209.709 164.571 212.008 161.46Z" fill="#EACE6A"/>
<path d="M204.914 143.267C208.61 144.222 212.043 143.103 212.681 140.862C213.319 138.621 210.926 135.972 207.231 135.017C203.535 134.062 200.102 135.182 199.464 137.423C198.893 139.761 201.285 142.409 204.914 143.267Z" fill="#EACE6A"/>
<path d="M201.869 155.703C205.396 153.538 209.376 153.586 210.656 155.676C211.935 157.767 210.053 161.225 206.525 163.39C202.998 165.555 199.018 165.507 197.738 163.417C196.459 161.326 198.341 157.868 201.869 155.703Z" fill="#EACE6A"/>
<path d="M200.983 153.802C204.789 153.078 207.376 150.575 206.924 148.294C206.408 145.919 203.014 144.61 199.304 145.271C195.498 145.994 192.91 148.497 193.362 150.778C193.719 153.122 197.177 154.525 200.983 153.802Z" fill="#EACE6A"/>
<path d="M306.694 149.536C300.971 155.373 304.7 162.182 304.009 172.456C303.145 187.392 310.602 192.64 316.641 189.417C322.68 186.194 321.608 176.77 327.187 172.027C332.362 167 341.605 168.722 345.031 162.763C348.659 156.946 343.995 148.881 329.267 148.681C319.471 148.662 312.885 144.326 306.694 149.536Z" fill="#35BDBA"/>
<path d="M286.635 158.751C294.409 160.806 300.184 166.293 299.554 170.972C298.793 175.845 291.896 178.107 284.122 176.051C276.347 173.996 270.572 168.509 271.203 163.829C271.963 158.957 278.86 156.695 286.635 158.751Z" fill="#35BDBA"/>
<path d="M316.319 131.202C317.314 139.05 322.114 144.811 326.932 144.329C331.75 143.848 335.026 137.218 334.032 129.369C333.037 121.521 328.237 115.76 323.419 116.242C318.465 116.925 315.189 123.556 316.319 131.202Z" fill="#35BDBA"/>
<path d="M289.962 134.822C296.853 139.966 299.818 147.67 296.764 151.73C293.71 155.79 285.585 154.803 278.694 149.658C271.803 144.514 268.838 136.81 271.892 132.749C274.946 128.689 283.071 129.677 289.962 134.822Z" fill="#35BDBA"/>
<path d="M292.956 131.666C297.276 138.447 304.099 141.522 308.157 138.91C312.347 136.104 312.267 128.566 308.141 121.922C303.82 115.14 296.998 112.066 292.94 114.677C288.687 117.152 288.635 124.885 292.956 131.666Z" fill="#35BDBA"/>
</svg>
