<svg width="645" height="638" viewBox="0 0 645 638" fill="none" xmlns="http://www.w3.org/2000/svg">
<path d="M634.138 590.216C632.272 585.806 627.153 583.731 622.743 585.597C618.855 587.242 616.793 591.261 617.586 595.236L594.144 605.155C591.843 601.818 587.522 600.5 583.634 602.145C579.224 604.011 577.149 609.13 579.015 613.54C579.825 615.455 581.225 616.984 583.032 617.861C582.428 619.827 582.526 621.838 583.336 623.752C585.202 628.162 590.322 630.237 594.732 628.372C598.619 626.727 600.681 622.707 599.889 618.732L623.273 608.838C625.574 612.174 629.894 613.493 633.782 611.848C638.192 609.982 640.267 604.863 638.401 600.453C637.591 598.538 636.192 597.009 634.384 596.132C635.047 594.142 634.948 592.131 634.138 590.216ZM631.766 598.677C633.378 599.089 634.688 600.245 635.326 601.754C636.48 604.481 635.208 607.619 632.481 608.773C629.812 609.902 626.723 608.746 625.511 606.044C625.143 605.173 624.176 604.83 623.306 605.198L597.253 616.222C596.383 616.59 596.039 617.556 596.325 618.393C597.396 621.087 596.158 624.142 593.43 625.296C590.703 626.45 587.565 625.178 586.411 622.451C585.773 620.942 585.856 619.197 586.681 617.753C586.965 617.291 586.942 616.753 586.746 616.289C586.55 615.825 586.121 615.459 585.65 615.316C584.039 614.903 582.729 613.747 582.09 612.239C580.936 609.512 582.208 606.374 584.936 605.22C587.605 604.09 590.693 605.246 591.905 607.949C592.274 608.819 593.24 609.163 594.11 608.795L620.279 597.722C621.15 597.354 621.493 596.387 621.208 595.55C620.136 592.857 621.375 589.801 624.102 588.647C626.829 587.494 629.967 588.765 631.121 591.493C631.759 593.001 631.677 594.746 630.851 596.19C630.568 596.652 630.59 597.19 630.786 597.654C630.867 598.168 631.295 598.534 631.766 598.677Z" fill="#A0D6E7"/>
<path d="M603.631 594.915C604.501 594.547 604.903 593.556 604.534 592.686L602.791 588.566C602.423 587.696 601.432 587.294 600.562 587.662C599.691 588.031 599.29 589.021 599.658 589.892L601.401 594.012C601.769 594.882 602.76 595.284 603.631 594.915Z" fill="#A0D6E7"/>
<path d="M609.857 593.786C610.138 593.804 610.337 593.788 610.569 593.69C611.149 593.444 611.582 592.851 611.593 592.23L611.763 587.78C611.792 586.879 611.051 586.097 610.124 586.01C609.223 585.981 608.442 586.722 608.355 587.649L608.185 592.099C608.156 593 608.897 593.781 609.857 593.786Z" fill="#A0D6E7"/>
<path d="M596.134 598.703C596.67 599.16 597.315 599.23 597.895 598.984C598.127 598.886 598.335 598.73 598.46 598.54C599.067 597.873 599.022 596.797 598.33 596.132L595.018 593.155C594.351 592.548 593.275 592.593 592.61 593.284C592.003 593.952 592.048 595.027 592.74 595.692L596.134 598.703Z" fill="#A0D6E7"/>
<path d="M613.844 619.053C612.974 619.422 612.572 620.413 612.94 621.283L614.683 625.403C615.052 626.273 616.043 626.675 616.913 626.306C617.783 625.938 618.185 624.947 617.817 624.077L616.074 619.957C615.705 619.087 614.714 618.685 613.844 619.053Z" fill="#A0D6E7"/>
<path d="M607.618 620.183C606.716 620.154 605.935 620.895 605.848 621.821L605.679 626.271C605.65 627.173 606.391 627.954 607.317 628.041C607.598 628.059 607.797 628.043 608.029 627.945C608.609 627.699 609.042 627.106 609.053 626.485L609.222 622.035C609.318 620.968 608.577 620.187 607.618 620.183Z" fill="#A0D6E7"/>
<path d="M621.341 615.266C620.673 614.659 619.598 614.703 618.932 615.395C618.325 616.063 618.37 617.138 619.062 617.803L622.374 620.78C622.91 621.238 623.555 621.307 624.135 621.061C624.367 620.963 624.575 620.807 624.7 620.617C625.307 619.95 625.262 618.874 624.57 618.209L621.341 615.266Z" fill="#A0D6E7"/>
<path d="M421.232 9.57875C405.141 14.217 389.23 23.4254 391.529 31.4011L394.897 43.0847C397.196 51.0604 415.587 50.4573 431.678 45.8191C447.769 41.1808 463.68 31.9724 461.381 23.9968L457.993 12.2431C455.714 4.33743 437.323 4.94052 421.232 9.57875ZM413.876 46.1007C404.817 46.742 398.612 45.1963 397.785 42.3279L395.93 35.8914C399.845 37.6424 405.916 37.9383 412.696 37.2723C411.68 39.0049 411.454 41.1157 411.999 43.0047C412.342 44.1941 413.014 45.2126 413.876 46.1007ZM403.228 34.3941C408.389 30.4815 416.401 26.7323 425.427 24.1308C434.452 21.5294 443.23 20.4387 449.682 21.0037C444.88 24.5854 437.188 28.3939 427.463 31.197C417.759 34.0701 409.22 34.9402 403.228 34.3941ZM458.512 24.8236C459.803 29.3011 448.762 37.7881 430.851 42.9506C427.003 44.0598 423.445 44.8582 420.036 45.3862C417.716 45.7517 415.492 44.3467 414.867 42.1779C414.504 40.9186 414.671 39.658 415.409 38.5362C416.076 37.4345 417.215 36.6517 418.514 36.4286C421.763 35.871 425.092 35.0631 428.31 34.1354C440.414 30.6467 452.441 24.5277 456.637 18.3171L458.512 24.8236ZM452.717 18.3863C445.693 17.1525 435.304 18.177 424.6 21.2624C413.896 24.3478 404.555 29.0103 399.266 33.7933C396.574 33.1295 394.821 32.0434 394.398 30.5742C393.107 26.0967 404.148 17.6098 422.059 12.4472C439.969 7.28464 453.854 8.66235 455.125 13.07C455.548 14.5392 454.642 16.3915 452.717 18.3863Z" fill="#4AB1D2" fill-opacity="0.52"/>
<path d="M420.169 42.6956C421.135 42.4172 421.693 41.4084 421.414 40.4424C421.136 39.4764 420.127 38.9191 419.161 39.1975C418.195 39.4759 417.638 40.4847 417.916 41.4507C418.195 42.4167 419.203 42.974 420.169 42.6956Z" fill="#4AB1D2" fill-opacity="0.52"/>
<path d="M425.797 41.4524C426.763 41.174 427.32 40.1652 427.042 39.1992C426.763 38.2333 425.755 37.6759 424.789 37.9543C423.823 38.2328 423.265 39.2416 423.544 40.2075C423.822 41.1735 424.831 41.7309 425.797 41.4524Z" fill="#4AB1D2" fill-opacity="0.52"/>
<path d="M431.435 39.9788C432.401 39.7004 432.958 38.6916 432.68 37.7256C432.401 36.7596 431.392 36.2023 430.426 36.4807C429.46 36.7591 428.903 37.7679 429.181 38.7339C429.46 39.6999 430.469 40.2572 431.435 39.9788Z" fill="#4AB1D2" fill-opacity="0.52"/>
<path d="M436.921 38.2459C437.887 37.9675 438.444 36.9587 438.166 35.9927C437.887 35.0267 436.879 34.4694 435.913 34.7478C434.947 35.0262 434.389 36.035 434.668 37.001C434.946 37.967 435.955 38.5243 436.921 38.2459Z" fill="#4AB1D2" fill-opacity="0.52"/>
<path d="M-17.1167 156.721C-15.302 165.07 -10.495 172.269 -3.51311 177.121C-3.18064 177.352 -2.84817 177.583 -2.49976 177.791C13.0307 187.785 33.8039 183.286 43.7948 167.76C48.6367 160.23 50.2645 151.282 48.3569 142.529C46.4722 133.791 41.2868 126.33 33.7593 121.455C18.2288 111.462 -2.54437 115.96 -12.5432 131.498C-17.3966 139.02 -19.0129 147.976 -17.1167 156.721ZM28.0637 177.7C27.3136 171.586 28.694 165.441 32.055 160.213C35.416 154.985 40.4574 151.18 46.3326 149.331C46.412 155.284 44.739 161.141 41.4497 166.266C38.0772 171.486 33.3676 175.352 28.0637 177.7ZM32.2466 123.804C32.5641 124.007 32.8622 124.214 33.1717 124.429C39.5689 128.875 43.977 135.474 45.6463 143.126C45.8961 144.235 46.0567 145.349 46.167 146.463C39.3795 148.426 33.5621 152.711 29.7143 158.689C25.8665 164.666 24.3716 171.734 25.3877 178.712C16.856 181.571 7.14558 180.669 -0.998478 175.435C-7.89194 171.018 -12.6509 164.142 -14.3947 156.131C-14.6445 155.023 -14.8051 153.908 -14.9154 152.795C-8.12794 150.832 -2.31051 146.546 1.53731 140.569C5.38513 134.592 6.88005 127.523 5.86386 120.545C14.4036 117.676 24.1025 118.569 32.2466 123.804ZM3.18789 121.558C3.93799 127.671 2.5576 133.817 -0.803392 139.044C-4.16438 144.272 -9.20583 148.077 -15.081 149.926C-15.1604 143.973 -13.4874 138.116 -10.1981 132.992C-6.8256 127.772 -2.11603 123.906 3.18789 121.558Z" fill="#9ED6E7"/>
<path d="M16.183 146.624C14.3846 145.374 12.2794 145.933 10.8516 146.463C9.49095 146.966 8.09534 147.555 7.32494 148.664C6.81134 149.403 6.63749 150.074 6.8052 150.726C7.06449 151.807 8.10517 152.36 9.29686 152.993C10.4475 153.598 11.6382 154.425 12.6062 155.293C13.0179 155.664 13.4107 156.01 13.8049 156.284C14.3715 156.678 14.9466 156.919 15.6001 156.838C16.2675 156.754 16.8437 156.362 17.3516 155.632C18.1619 154.466 18.1622 152.87 18.162 151.592C18.1636 149.924 17.9403 147.845 16.183 146.624ZM15.3664 154.861C15.1223 154.862 14.4049 154.229 13.9332 153.804C13.4287 153.356 12.8559 152.848 12.1744 152.375C11.4928 151.901 10.8255 151.547 10.2215 151.225C9.65848 150.931 8.8238 150.485 8.73375 150.264C8.73375 150.264 8.73083 150.128 8.95339 149.808C9.3928 149.175 10.5169 148.714 11.5339 148.337C13.1768 147.725 14.2147 147.704 15.0195 148.263C15.8078 148.811 16.1381 149.808 16.1368 151.597C16.1369 152.596 16.1379 153.838 15.6871 154.487C15.4924 154.802 15.3664 154.861 15.3664 154.861Z" fill="#9ED6E7"/>
<path d="M19.1617 150.679C19.3793 151.049 19.7289 151.475 20.1805 151.788C20.5665 152.057 21.0342 152.26 21.5496 152.289C22.1756 152.335 23.0942 152.169 23.9303 151.106C24.2003 150.77 24.495 150.452 24.7808 150.163C25.6444 149.253 26.7285 148.131 25.9959 146.855C25.5583 146.1 24.6223 145.73 23.342 145.802C22.3756 145.861 21.3182 146.174 20.5103 146.635C19.624 147.14 19.065 147.786 18.8398 148.531C18.6488 149.226 18.7538 149.969 19.1617 150.679ZM21.5141 148.38C22.5157 147.797 23.7713 147.708 24.1714 147.816C24.0224 148.065 23.6175 148.49 23.3317 148.779C23.0231 149.1 22.6664 149.473 22.3564 149.867C22.1232 150.167 21.8984 150.315 21.6935 150.295C21.4026 150.275 21.0534 149.972 20.8926 149.677C20.7583 149.45 20.7233 149.255 20.7678 149.103C20.8334 148.869 21.0963 148.613 21.5141 148.38Z" fill="#9ED6E7"/>
<path d="M9.28038 140.926C8.57567 142.08 8.74102 142.999 9.00184 143.569C9.21729 144.048 9.5626 144.41 9.94856 144.678C10.4002 144.992 10.9153 145.179 11.344 145.246C12.1514 145.381 12.8841 145.22 13.461 144.793C14.0886 144.328 14.4858 143.581 14.6552 142.566C14.8118 141.64 14.736 140.54 14.4486 139.622C14.0782 138.402 13.3965 137.649 12.5366 137.502C11.0849 137.26 10.4114 138.667 9.85982 139.794C9.68903 140.162 9.50113 140.555 9.28038 140.926ZM12.6781 142.24C12.597 142.707 12.449 143.042 12.2603 143.191C12.1279 143.294 11.9306 143.315 11.6789 143.274C11.3527 143.218 10.9407 143.005 10.821 142.739C10.7302 142.554 10.7908 142.292 10.9912 141.968C11.2576 141.533 11.4773 141.076 11.6709 140.675C11.8442 140.321 12.0784 139.826 12.2635 139.577C12.5418 139.965 12.8686 141.142 12.6781 142.24Z" fill="#9ED6E7"/>
<path d="M16.4234 145.683C16.4834 145.737 16.5573 145.788 16.6394 145.845C17.2799 146.29 18.2634 146.645 19.2316 146.356C19.8315 146.176 20.6368 145.701 21.0445 144.413C21.1799 144.008 21.3514 143.603 21.514 143.229C22.0106 142.077 22.6291 140.643 21.4987 139.712C20.1283 138.564 17.5221 139.932 16.2893 141.425C14.784 143.241 15.3694 144.817 16.4234 145.683ZM17.8207 142.709C18.5591 141.821 19.7067 141.291 20.1178 141.261C20.0623 141.551 19.8273 142.082 19.6705 142.447C19.4933 142.86 19.2901 143.328 19.1393 143.808C19.0242 144.166 18.8619 144.382 18.6639 144.439C18.3766 144.52 17.9361 144.347 17.6986 144.146C17.453 143.939 17.0652 143.621 17.8207 142.709Z" fill="#9ED6E7"/>
</svg>
