<svg width="1440" height="397" viewBox="0 0 1440 397" fill="none" xmlns="http://www.w3.org/2000/svg">
<path d="M36.4144 69.8301C39.1281 67.7 41.7121 69.6398 45.9608 69.9067C52.1403 70.3224 53.8058 73.7822 52.0691 76.1842C50.4221 78.5557 46.571 77.6505 44.3343 79.7192C41.9516 81.6362 42.0912 85.6147 39.3933 86.8336C36.7851 88.0221 33.791 85.7185 34.6137 79.3999C35.1921 75.1774 33.7572 72.1424 36.4144 69.8301Z" fill="#2884D0"/>
<path d="M41.181 62.474C41.303 65.7539 43.1637 68.2415 45.2176 68.1473C47.2716 68.053 48.8675 65.1956 48.6558 61.9462C48.5338 58.6663 46.7628 56.1481 44.6191 56.2729C42.4754 56.3977 41.0591 59.194 41.181 62.474Z" fill="#2884D0"/>
<path d="M28.3535 73.2752C31.4636 74.0297 33.4757 76.3652 32.9339 78.4617C32.3921 80.5582 29.4302 81.565 26.3817 80.6888C23.2716 79.9343 21.2596 77.5988 21.8013 75.5023C22.3431 73.4058 25.305 72.399 28.3535 73.2752Z" fill="#2884D0"/>
<path d="M31.3708 62.1854C32.9852 65.1594 35.8437 66.704 37.7954 65.638C39.7471 64.572 39.9841 61.17 38.3697 58.1961C36.7553 55.2221 33.8968 53.6776 31.9451 54.7435C29.9935 55.8095 29.7564 59.2115 31.3708 62.1854Z" fill="#2884D0"/>
<path d="M30.0413 63.341C32.6201 65.5846 33.4883 68.7115 32.0312 70.4146C30.5742 72.1176 27.3691 71.6973 24.7904 69.4537C22.2116 67.2102 21.3434 64.0832 22.8004 62.3802C24.2575 60.6772 27.4625 61.0975 30.0413 63.341Z" fill="#2884D0"/>
<path d="M582.416 192.83C585.13 190.7 587.714 192.64 591.963 192.907C598.142 193.322 599.808 196.782 598.071 199.184C596.424 201.556 592.573 200.65 590.336 202.719C587.954 204.636 588.093 208.615 585.395 209.834C582.787 211.022 579.793 208.718 580.616 202.4C581.194 198.177 579.759 195.142 582.416 192.83Z" fill="#2884D0"/>
<path d="M587.183 185.474C587.305 188.754 589.166 191.242 591.22 191.147C593.274 191.053 594.869 188.196 594.658 184.946C594.536 181.666 592.765 179.148 590.621 179.273C588.477 179.398 587.061 182.194 587.183 185.474Z" fill="#2884D0"/>
<path d="M574.355 196.275C577.466 197.03 579.478 199.365 578.936 201.462C578.394 203.558 575.432 204.565 572.384 203.689C569.274 202.934 567.262 200.599 567.803 198.502C568.345 196.406 571.307 195.399 574.355 196.275Z" fill="#2884D0"/>
<path d="M577.373 185.185C578.987 188.159 581.846 189.704 583.797 188.638C585.749 187.572 585.986 184.17 584.372 181.196C582.757 178.222 579.899 176.678 577.947 177.744C575.995 178.81 575.758 182.211 577.373 185.185Z" fill="#2884D0"/>
<path d="M576.043 186.341C578.622 188.585 579.49 191.712 578.033 193.415C576.576 195.118 573.371 194.697 570.792 192.454C568.214 190.21 567.345 187.083 568.802 185.38C570.259 183.677 573.464 184.097 576.043 186.341Z" fill="#2884D0"/>
<path d="M255.416 354.83C258.13 352.7 260.714 354.64 264.963 354.907C271.142 355.322 272.808 358.782 271.071 361.184C269.424 363.556 265.573 362.65 263.336 364.719C260.954 366.636 261.093 370.615 258.395 371.834C255.787 373.022 252.793 370.718 253.616 364.4C254.194 360.177 252.759 357.142 255.416 354.83Z" fill="#2884D0"/>
<path d="M260.183 347.474C260.305 350.754 262.166 353.242 264.22 353.147C266.274 353.053 267.869 350.196 267.658 346.946C267.536 343.666 265.765 341.148 263.621 341.273C261.477 341.398 260.061 344.194 260.183 347.474Z" fill="#2884D0"/>
<path d="M247.355 358.275C250.466 359.03 252.478 361.365 251.936 363.462C251.394 365.558 248.432 366.565 245.384 365.689C242.274 364.934 240.262 362.599 240.803 360.502C241.345 358.406 244.307 357.399 247.355 358.275Z" fill="#2884D0"/>
<path d="M250.373 347.185C251.987 350.159 254.846 351.704 256.797 350.638C258.749 349.572 258.986 346.17 257.372 343.196C255.757 340.222 252.899 338.678 250.947 339.744C248.995 340.81 248.758 344.211 250.373 347.185Z" fill="#2884D0"/>
<path d="M249.043 348.341C251.622 350.585 252.49 353.712 251.033 355.415C249.576 357.118 246.371 356.697 243.792 354.454C241.214 352.21 240.345 349.083 241.802 347.38C243.259 345.677 246.464 346.097 249.043 348.341Z" fill="#2884D0"/>
<path d="M1009.39 384.9C1012.01 382.658 1014.68 384.487 1018.93 384.576C1025.12 384.732 1026.93 388.119 1025.3 390.592C1023.75 393.03 1019.87 392.287 1017.72 394.448C1015.42 396.463 1015.72 400.432 1013.08 401.763C1010.52 403.06 1007.44 400.884 1007.99 394.537C1008.39 390.294 1006.83 387.321 1009.39 384.9Z" fill="#2884D0"/>
<path d="M1013.84 377.35C1014.1 380.622 1016.07 383.029 1018.11 382.849C1020.16 382.669 1021.64 379.747 1021.29 376.509C1021.03 373.237 1019.16 370.796 1017.02 371.01C1014.88 371.225 1013.58 374.078 1013.84 377.35Z" fill="#2884D0"/>
<path d="M1001.48 388.679C1004.62 389.303 1006.73 391.552 1006.27 393.669C1005.82 395.787 1002.9 396.917 999.822 396.169C996.683 395.546 994.574 393.297 995.028 391.179C995.481 389.062 998.398 387.932 1001.48 388.679Z" fill="#2884D0"/>
<path d="M1004.03 377.473C1005.77 380.377 1008.69 381.8 1010.59 380.653C1012.5 379.506 1012.59 376.097 1010.86 373.194C1009.12 370.29 1006.2 368.867 1004.29 370.013C1002.39 371.16 1002.29 374.569 1004.03 377.473Z" fill="#2884D0"/>
<path d="M1002.75 378.683C1005.42 380.817 1006.42 383.904 1005.03 385.667C1003.65 387.43 1000.43 387.144 997.76 385.011C995.089 382.877 994.091 379.79 995.475 378.027C996.859 376.264 1000.08 376.55 1002.75 378.683Z" fill="#2884D0"/>
<path d="M348.673 29.8301C345.96 27.7 343.376 29.6398 339.127 29.9067C332.948 30.3224 331.282 33.7822 333.019 36.1842C334.666 38.5557 338.517 37.6505 340.754 39.7192C343.136 41.6362 342.997 45.6147 345.695 46.8336C348.303 48.0221 351.297 45.7185 350.474 39.3999C349.896 35.1774 351.331 32.1424 348.673 29.8301Z" fill="#2884D0"/>
<path d="M343.907 22.474C343.785 25.7539 341.924 28.2415 339.87 28.1473C337.816 28.053 336.22 25.1956 336.432 21.9462C336.554 18.6663 338.325 16.1481 340.469 16.2729C342.612 16.3977 344.029 19.194 343.907 22.474Z" fill="#2884D0"/>
<path d="M356.734 33.2752C353.624 34.0297 351.612 36.3652 352.154 38.4617C352.696 40.5582 355.658 41.565 358.706 40.6888C361.816 39.9343 363.828 37.5988 363.287 35.5023C362.745 33.4058 359.783 32.399 356.734 33.2752Z" fill="#2884D0"/>
<path d="M353.717 22.1854C352.103 25.1594 349.244 26.704 347.293 25.638C345.341 24.572 345.104 21.17 346.718 18.1961C348.333 15.2221 351.191 13.6776 353.143 14.7435C355.094 15.8095 355.332 19.2115 353.717 22.1854Z" fill="#2884D0"/>
<path d="M355.047 23.341C352.468 25.5846 351.6 28.7115 353.057 30.4146C354.514 32.1176 357.719 31.6973 360.298 29.4537C362.876 27.2102 363.744 24.0832 362.287 22.3802C360.83 20.6772 357.625 21.0975 355.047 23.341Z" fill="#2884D0"/>
<path d="M895.673 271.83C892.96 269.7 890.376 271.64 886.127 271.907C879.948 272.322 878.282 275.782 880.019 278.184C881.666 280.556 885.517 279.65 887.754 281.719C890.136 283.636 889.997 287.615 892.695 288.834C895.303 290.022 898.297 287.718 897.474 281.4C896.896 277.177 898.331 274.142 895.673 271.83Z" fill="#2884D0"/>
<path d="M890.907 264.474C890.785 267.754 888.924 270.242 886.87 270.147C884.816 270.053 883.22 267.196 883.432 263.946C883.554 260.666 885.325 258.148 887.469 258.273C889.612 258.398 891.029 261.194 890.907 264.474Z" fill="#2884D0"/>
<path d="M903.734 275.275C900.624 276.03 898.612 278.365 899.154 280.462C899.696 282.558 902.658 283.565 905.706 282.689C908.816 281.934 910.828 279.599 910.287 277.502C909.745 275.406 906.783 274.399 903.734 275.275Z" fill="#2884D0"/>
<path d="M900.717 264.185C899.103 267.159 896.244 268.704 894.293 267.638C892.341 266.572 892.104 263.17 893.718 260.196C895.333 257.222 898.191 255.678 900.143 256.744C902.094 257.81 902.332 261.211 900.717 264.185Z" fill="#2884D0"/>
<path d="M902.047 265.341C899.468 267.585 898.6 270.712 900.057 272.415C901.514 274.118 904.719 273.697 907.298 271.454C909.876 269.21 910.744 266.083 909.287 264.38C907.83 262.677 904.625 263.097 902.047 265.341Z" fill="#2884D0"/>
<path d="M1424.67 341.83C1421.96 339.7 1419.38 341.64 1415.13 341.907C1408.95 342.322 1407.28 345.782 1409.02 348.184C1410.67 350.556 1414.52 349.65 1416.76 351.719C1419.14 353.636 1419 357.615 1421.7 358.834C1424.3 360.022 1427.3 357.718 1426.48 351.4C1425.9 347.177 1427.33 344.142 1424.67 341.83Z" fill="#2884D0"/>
<path d="M1419.91 334.474C1419.79 337.754 1417.93 340.242 1415.87 340.147C1413.82 340.053 1412.22 337.196 1412.43 333.946C1412.56 330.666 1414.33 328.148 1416.47 328.273C1418.61 328.398 1420.03 331.194 1419.91 334.474Z" fill="#2884D0"/>
<path d="M1432.74 345.275C1429.63 346.03 1427.61 348.365 1428.16 350.462C1428.7 352.558 1431.66 353.565 1434.71 352.689C1437.82 351.934 1439.83 349.599 1439.29 347.502C1438.75 345.406 1435.78 344.399 1432.74 345.275Z" fill="#2884D0"/>
<path d="M1429.72 334.185C1428.1 337.159 1425.25 338.704 1423.29 337.638C1421.34 336.572 1421.11 333.17 1422.72 330.196C1424.33 327.222 1427.19 325.678 1429.14 326.744C1431.1 327.81 1431.33 331.211 1429.72 334.185Z" fill="#2884D0"/>
<path d="M1431.05 335.341C1428.47 337.585 1427.6 340.712 1429.06 342.415C1430.52 344.118 1433.72 343.697 1436.3 341.454C1438.88 339.21 1439.75 336.083 1438.29 334.38C1436.83 332.677 1433.63 333.097 1431.05 335.341Z" fill="#2884D0"/>
<mask id="mask0_92_877" style="mask-type:alpha" maskUnits="userSpaceOnUse" x="-1" y="-1" width="1441" height="408">
<path d="M0 28.1064V406.355H1439.5V46.356C1427.5 54.356 1418.98 57.4689 1410.44 60.3559C1279.42 94.8807 938.767 143.215 624.317 60.3559C309.866 -22.5035 77.0845 -6.41838 0 28.1064Z" fill="#0066BA" stroke="#0066BA"/>
</mask>
<g mask="url(#mask0_92_877)">
<path d="M775.417 98.8301C778.131 96.7 780.715 98.6398 784.964 98.9067C791.143 99.3224 792.809 102.782 791.072 105.184C789.425 107.556 785.574 106.65 783.337 108.719C780.954 110.636 781.094 114.615 778.396 115.834C775.788 117.022 772.794 114.718 773.617 108.4C774.195 104.177 772.76 101.142 775.417 98.8301Z" fill="#2884D0"/>
<path d="M780.184 91.474C780.306 94.7539 782.167 97.2415 784.221 97.1473C786.275 97.053 787.87 94.1956 787.659 90.9462C787.537 87.6663 785.766 85.1481 783.622 85.2729C781.478 85.3977 780.062 88.194 780.184 91.474Z" fill="#2884D0"/>
<path d="M767.356 102.275C770.467 103.03 772.479 105.365 771.937 107.462C771.395 109.558 768.433 110.565 765.385 109.689C762.275 108.934 760.262 106.599 760.804 104.502C761.346 102.406 764.308 101.399 767.356 102.275Z" fill="#2884D0"/>
<path d="M770.374 91.1854C771.988 94.1594 774.847 95.704 776.798 94.638C778.75 93.572 778.987 90.17 777.373 87.1961C775.758 84.2221 772.9 82.6776 770.948 83.7435C768.996 84.8095 768.759 88.2115 770.374 91.1854Z" fill="#2884D0"/>
<path d="M769.044 92.341C771.623 94.5846 772.491 97.7115 771.034 99.4146C769.577 101.118 766.372 100.697 763.793 98.4537C761.215 96.2102 760.346 93.0832 761.803 91.3802C763.26 89.6772 766.465 90.0975 769.044 92.341Z" fill="#2884D0"/>
</g>
<path d="M1315.41 124.83C1318.13 122.7 1320.71 124.64 1324.96 124.907C1331.14 125.322 1332.81 128.782 1331.07 131.184C1329.42 133.556 1325.57 132.65 1323.33 134.719C1320.95 136.636 1321.09 140.615 1318.39 141.834C1315.79 143.022 1312.79 140.718 1313.61 134.4C1314.19 130.177 1312.76 127.142 1315.41 124.83Z" fill="#2884D0"/>
<path d="M1320.18 117.474C1320.3 120.754 1322.16 123.242 1324.22 123.147C1326.27 123.053 1327.87 120.196 1327.66 116.946C1327.53 113.666 1325.76 111.148 1323.62 111.273C1321.48 111.398 1320.06 114.194 1320.18 117.474Z" fill="#2884D0"/>
<path d="M1307.35 128.275C1310.46 129.03 1312.48 131.365 1311.93 133.462C1311.39 135.558 1308.43 136.565 1305.38 135.689C1302.27 134.934 1300.26 132.599 1300.8 130.502C1301.34 128.406 1304.31 127.399 1307.35 128.275Z" fill="#2884D0"/>
<path d="M1310.37 117.185C1311.99 120.159 1314.84 121.704 1316.8 120.638C1318.75 119.572 1318.98 116.17 1317.37 113.196C1315.76 110.222 1312.9 108.678 1310.95 109.744C1308.99 110.81 1308.76 114.211 1310.37 117.185Z" fill="#2884D0"/>
<path d="M1309.04 118.341C1311.62 120.585 1312.49 123.712 1311.03 125.415C1309.57 127.118 1306.37 126.697 1303.79 124.454C1301.21 122.21 1300.34 119.083 1301.8 117.38C1303.26 115.677 1306.46 116.097 1309.04 118.341Z" fill="#2884D0"/>
</svg>
