<svg width="125" height="122" viewBox="0 0 125 122" fill="none" xmlns="http://www.w3.org/2000/svg">
<path d="M109.847 13.681C106.984 14.2453 106.783 16.9756 104.574 19.8375C101.405 24.0257 102.632 27.0429 105.082 27.3049C107.531 27.5668 109.043 24.6022 111.649 24.3286C114.189 23.892 116.642 26.2353 118.836 25.1782C121.064 24.2027 121.227 20.9192 116.823 17.9275C113.872 15.9708 112.729 13.3932 109.847 13.681Z" fill="#EACE6A"/>
<path d="M102.001 12.3757C103.946 14.5243 104.62 17.2763 103.519 18.5168C102.34 19.7877 99.8192 19.0744 97.8742 16.9258C95.9292 14.7773 95.2556 12.0253 96.357 10.7848C97.5352 9.51384 100.056 10.2272 102.001 12.3757Z" fill="#EACE6A"/>
<path d="M116.321 10.246C115.093 12.7352 115.419 15.373 116.966 16.1921C118.514 17.0112 120.793 15.728 122.021 13.2387C123.25 10.7494 122.923 8.11174 121.376 7.29264C119.748 6.50534 117.469 7.78847 116.321 10.246Z" fill="#EACE6A"/>
<path d="M107.665 6.05311C108.741 8.92741 108.136 11.7671 106.424 12.3442C104.712 12.9212 102.453 11.0145 101.376 8.14019C100.299 5.26588 100.905 2.42614 102.617 1.8491C104.329 1.27207 106.588 3.17881 107.665 6.05311Z" fill="#EACE6A"/>
<path d="M109.183 5.72719C109.165 8.5675 110.625 10.8239 112.358 10.8698C114.168 10.8849 115.612 8.66862 115.661 5.90704C115.678 3.06673 114.219 0.810375 112.486 0.764464C110.721 0.639818 109.2 2.88687 109.183 5.72719Z" fill="#EACE6A"/>
<path d="M14.4505 26.2925C12.4904 28.4484 13.9013 30.8266 13.7853 34.4984C13.6666 39.834 16.383 41.6068 18.4886 40.3786C20.5942 39.1504 20.0942 35.8053 22.017 34.0414C23.7929 32.1816 27.0992 32.6739 28.2417 30.5049C29.4576 28.3838 27.6983 25.57 22.4619 25.6917C18.9801 25.8135 16.5847 24.3543 14.4505 26.2925Z" fill="#EACE6A"/>
<path d="M7.43814 29.84C10.227 30.4708 12.3485 32.351 12.1835 34.0274C11.9747 35.7742 9.55214 36.671 6.76329 36.0402C3.97444 35.4095 1.85292 33.5293 2.01792 31.8529C2.22676 30.106 4.64929 29.2093 7.43814 29.84Z" fill="#EACE6A"/>
<path d="M17.6404 19.6302C18.0929 22.4149 19.8714 24.4054 21.5776 24.1706C23.2839 23.9358 24.3644 21.5293 23.912 18.7446C23.4595 15.9599 21.681 13.9694 19.9748 14.2042C18.2226 14.5128 17.142 16.9193 17.6404 19.6302Z" fill="#EACE6A"/>
<path d="M8.31939 21.2667C10.8331 23.0102 11.9841 25.7177 10.9501 27.205C9.91605 28.6924 7.01582 28.4469 4.5021 26.7034C1.98839 24.9598 0.837386 22.2523 1.87141 20.765C2.90544 19.2777 5.80568 19.5231 8.31939 21.2667Z" fill="#EACE6A"/>
<path d="M9.34262 20.1017C10.9637 22.4624 13.4271 23.4689 14.8364 22.4847C16.29 21.4293 16.1666 18.7434 14.6164 16.4289C12.9952 14.0682 10.5319 13.0617 9.12261 14.0459C7.64244 14.9838 7.7215 17.741 9.34262 20.1017Z" fill="#EACE6A"/>
<path d="M43.6614 90.3699C38.0096 88.2329 34.5106 92.7805 27.352 95.3678C16.9877 99.224 15.6538 105.831 19.6307 108.959C23.6076 112.088 29.6657 108.56 34.5341 110.925C39.4746 112.933 41.058 119.699 46.1091 120.246C51.1242 120.972 55.195 115.417 50.9516 105.392C48.0514 98.7564 49.0272 93.0102 43.6614 90.3699Z" fill="#F06A8A"/>
<path d="M31.4612 79.5355C32.3818 85.4078 30.3858 90.9472 27.0317 91.9119C23.5083 92.8459 19.9269 88.8512 19.0063 82.9789C18.0857 77.1066 20.0817 71.5672 23.4358 70.6025C26.9592 69.6685 30.5406 73.6632 31.4612 79.5355Z" fill="#F06A8A"/>
<path d="M58.9299 91.4324C53.9145 94.439 51.4435 99.4 53.2019 102.517C54.9604 105.635 60.4213 105.88 65.4367 102.874C70.4521 99.8671 72.9231 94.9061 71.1647 91.7887C69.229 88.6391 63.7681 88.3936 58.9299 91.4324Z" fill="#F06A8A"/>
<path d="M48.6435 74.672C47.2109 80.8647 42.879 85.162 39.2235 84.3027C35.568 83.4434 33.8202 77.6509 35.2528 71.4582C36.6854 65.2656 41.0174 60.9682 44.6729 61.8275C48.3283 62.6869 50.0761 68.4794 48.6435 74.672Z" fill="#F06A8A"/>
<path d="M51.669 75.7595C48.3646 80.6998 48.3127 86.2307 51.2866 88.2006C54.4316 90.2014 59.5087 87.9064 62.7783 83.1385C66.0826 78.1981 66.1346 72.6672 63.1607 70.6974C60.2216 68.5552 54.9733 70.8191 51.669 75.7595Z" fill="#F06A8A"/>
</svg>
