<svg width="286" height="57" viewBox="0 0 286 57" fill="none" xmlns="http://www.w3.org/2000/svg">
<path d="M101.029 42.7255C100.665 42.7246 100.307 42.6956 99.9491 42.6554C99.5499 42.5926 99.1613 42.5074 98.773 42.4054C98.3382 42.2808 97.9091 42.1226 97.4905 41.9475C97.0928 41.7669 96.7007 41.5638 96.3191 41.3439C95.8914 41.079 95.4796 40.7861 95.0837 40.4763C94.6726 40.1329 94.2826 39.767 93.9033 39.3788C93.4731 38.9118 93.064 38.4224 92.6865 37.8994C92.3601 37.4383 92.0652 36.9548 91.7913 36.4545C91.533 35.9599 91.3059 35.4541 91.0999 34.9316C90.8794 34.3248 90.6902 33.7069 90.5324 33.0778C90.5226 33.0329 90.5127 32.9935 90.5028 32.9542C90.5028 32.9542 90.5028 32.9542 90.5028 32.9598C90.3509 32.269 90.2356 31.5727 90.1514 30.8764C90.083 30.1634 90.0457 29.456 90.0448 28.7431C90.0561 28.2885 90.0829 27.8395 90.12 27.3962C91.3673 27.7642 92.5931 28.1883 93.7918 28.6965C94.6595 29.0804 95.5007 29.5148 96.3203 29.9996C97.0934 30.4731 97.8399 30.9858 98.5494 31.5545C99.089 31.9993 99.6074 32.4777 100.094 32.9898C100.627 33.5581 101.123 34.1656 101.582 34.8066C102.046 35.4646 102.484 36.1449 102.869 36.8643C103.097 37.314 103.309 37.7692 103.49 38.2411C103.6 38.5389 103.689 38.8479 103.773 39.1568C103.822 39.3871 103.861 39.6286 103.894 39.8644C103.907 40.0497 103.915 40.2405 103.918 40.4258C103.916 40.5549 103.904 40.6839 103.892 40.813C103.875 40.9252 103.852 41.0374 103.825 41.144C103.803 41.2282 103.781 41.3011 103.754 41.3796C103.717 41.4581 103.684 41.5366 103.647 41.6095C103.61 41.6711 103.573 41.7328 103.53 41.7944C103.483 41.8504 103.44 41.9121 103.393 41.9625C103.335 42.0241 103.272 42.0856 103.204 42.1416C103.135 42.192 103.067 42.2367 102.999 42.287C102.905 42.3429 102.805 42.3876 102.706 42.4378C102.586 42.4824 102.466 42.527 102.346 42.566C102.158 42.6161 101.97 42.6493 101.783 42.6825C101.533 42.7099 101.284 42.7261 101.029 42.7255ZM171.637 55.5681C173.546 54.6299 175.102 52.9162 175.971 50.8808C176.362 49.9725 176.448 48.9567 176.378 47.9798C176.334 47.4184 176.269 46.8569 176.115 46.3232C175.951 45.7447 175.735 45.1996 175.488 44.6601C174.947 43.4912 174.202 42.4733 173.41 41.4946C172.541 40.4315 171.588 39.4356 170.613 38.4845C168.567 36.4754 166.378 34.6511 164.178 32.8325C162.071 31.0926 159.954 29.364 158.042 27.3777C157.376 26.6631 156.752 25.915 156.171 25.122C155.804 24.5991 155.458 24.0537 155.153 23.4916C155.153 23.4972 155.158 23.5029 155.163 23.5141C155.158 23.5029 155.153 23.4916 155.148 23.4804C155.128 23.4467 155.108 23.4129 155.093 23.3792C155.103 23.4073 155.123 23.4354 155.133 23.4635C154.885 22.9858 154.663 22.4968 154.462 21.9968C154.291 21.5473 154.146 21.0978 154.028 20.6373C153.924 20.1992 153.847 19.7555 153.791 19.3119C153.754 18.9526 153.733 18.5933 153.727 18.2397C153.743 17.8748 153.763 17.5212 153.809 17.1621C153.861 16.7862 153.933 16.4215 154.016 16.0568C154.115 15.6922 154.229 15.3333 154.353 14.98C154.45 14.7388 154.557 14.5034 154.669 14.2679C154.786 14.0605 154.913 13.8587 155.046 13.657C155.199 13.4609 155.363 13.2705 155.527 13.0857C155.8 12.8113 156.079 12.5594 156.363 12.3132C156.746 12.0054 157.14 11.7201 157.549 11.4574C158.094 11.1276 158.654 10.8315 159.234 10.5691C159.876 10.3013 160.524 10.0728 161.186 9.87805C162.094 9.63337 163 9.45044 163.922 9.30683C165.124 9.15271 166.325 9.07718 167.536 9.06341C169.272 9.07343 171 9.20692 172.717 9.44142C174.864 9.7612 176.972 10.2325 179.069 10.8047C181.771 11.5693 184.456 12.4462 187.055 13.5474C193.046 16.2289 198.706 19.6561 204.349 23.0664C204.324 23.0495 204.293 23.0326 204.267 23.0156C204.365 23.072 204.458 23.1284 204.55 23.1904C204.551 23.1848 204.551 23.1848 204.545 23.1848C205.112 23.5286 205.679 23.8724 206.246 24.2107C206.53 24.3854 206.818 24.5545 207.102 24.7293C207.107 24.7293 207.107 24.7349 207.112 24.7349C207.153 24.7631 207.189 24.7856 207.231 24.8082C207.257 24.8195 207.282 24.8364 207.303 24.8476C207.329 24.8646 207.36 24.8871 207.39 24.904C207.396 24.904 207.401 24.9096 207.406 24.9153C207.437 24.9322 207.473 24.9547 207.504 24.9716C207.798 25.1464 208.086 25.3211 208.375 25.4959C209.628 26.2512 210.885 27.0066 212.148 27.7451C213.344 28.4498 214.551 29.1209 215.763 29.7863C216.975 30.4573 218.193 31.106 219.432 31.7041C222.024 32.9512 224.653 34.1086 227.315 35.1762C228.819 35.775 230.333 36.3514 231.859 36.911C233.363 37.4649 234.89 37.9515 236.416 38.4157C239.48 39.344 242.571 40.1602 245.69 40.808C248.618 41.4161 251.551 41.968 254.507 42.4414C257.649 42.9377 260.807 43.3948 263.977 43.7228C267.002 44.0392 270.039 44.2939 273.07 44.4924C276.024 44.6795 278.997 44.6478 281.954 44.6384C283.518 44.6312 285.082 44.6239 286.647 44.5605C288.206 44.4971 289.767 44.3776 291.322 44.2412C292.092 44.1758 292.862 44.0936 293.627 44.0113C293.986 43.9785 294.345 43.9345 294.699 43.8849C294.86 43.8685 295.027 43.8465 295.183 43.8244C295.287 43.8078 295.391 43.7969 295.495 43.7803C295.574 43.7693 295.657 43.7583 295.735 43.7472C297.073 43.5654 298.396 43.3274 299.724 43.095C300.963 42.8792 302.214 42.6466 303.429 42.3017C304.076 42.1181 304.753 41.9346 305.34 41.5825C305.361 41.5713 305.387 41.5545 305.413 41.5377C305.429 41.5265 305.45 41.5154 305.466 41.5042C305.927 41.1966 306.082 40.5234 305.855 40.0233C305.607 39.4782 304.92 39.1789 304.402 39.492C304.297 39.5534 304.187 39.6093 304.077 39.6595C303.685 39.8213 303.279 39.9438 302.872 40.0606C301.704 40.372 300.521 40.5991 299.328 40.8094C298.026 41.0362 296.719 41.2687 295.407 41.4506C295.215 41.4782 295.022 41.5057 294.835 41.5333C294.866 41.5278 294.897 41.5223 294.933 41.5167C292.612 41.8084 290.276 42.0438 287.941 42.167C285.503 42.3011 283.071 42.3118 280.629 42.3168C280.675 42.3169 280.722 42.3171 280.769 42.3172C279.08 42.3129 277.397 42.3086 275.714 42.2707C273.927 42.2268 272.152 42.1045 270.376 41.9652C266.754 41.6698 263.137 41.3294 259.537 40.8375C259.584 40.8433 259.63 40.849 259.677 40.8547C256.451 40.3975 253.226 39.901 250.018 39.2978C248.432 38.9963 246.851 38.6779 245.271 38.3371C243.504 37.9678 241.754 37.5143 240.009 37.0384C240.015 37.0384 240.025 37.044 240.03 37.044C237.432 36.3133 234.854 35.5378 232.31 34.6051C229.87 33.7121 227.446 32.7573 225.054 31.7296C225.095 31.7521 225.136 31.7691 225.183 31.786C222.626 30.6738 220.101 29.511 217.64 28.1801C215.133 26.8265 212.668 25.3945 210.225 23.9233C209.658 23.585 209.096 23.2468 208.534 22.9086C208.426 22.8354 208.308 22.7733 208.199 22.7057C208.174 22.6888 208.148 22.6719 208.117 22.6606C207.931 22.5422 207.735 22.4294 207.55 22.3111C206.885 21.9109 206.215 21.505 205.55 21.1048C205.576 21.1217 205.607 21.1386 205.627 21.1555C200.597 18.1172 195.556 15.0733 190.29 12.5059C188.948 11.857 187.59 11.2361 186.199 10.6993C184.907 10.1965 183.588 9.7665 182.268 9.34217C179.63 8.48787 176.948 7.80748 174.221 7.32344C171.354 6.80536 168.421 6.62952 165.514 6.80738C162.836 6.96898 160.157 7.56841 157.705 8.75219C156.507 9.33292 155.369 10.1215 154.39 11.0564C153.953 11.4707 153.547 11.9243 153.202 12.4286C152.821 12.9722 152.522 13.5889 152.295 14.2282C151.863 15.4452 151.586 16.7243 151.553 18.0208C151.52 19.3062 151.706 20.5921 152.069 21.8111C153.286 25.9399 156.279 29.0572 159.335 31.7312C161.153 33.3244 163.035 34.8279 164.879 36.3818C166.765 37.9751 168.608 39.6245 170.325 41.4251C171.119 42.2747 171.876 43.1522 172.575 44.0914C172.82 44.4401 173.044 44.7999 173.257 45.1765C173.48 45.6037 173.682 46.0364 173.863 46.4915C173.923 46.6713 173.977 46.8567 174.027 47.042C174.086 47.3004 174.134 47.5587 174.167 47.8226C174.199 48.1314 174.211 48.4402 174.217 48.7489C174.21 48.8949 174.203 49.0408 174.185 49.1811C174.163 49.3045 174.14 49.4223 174.118 49.5458C174.075 49.6748 174.031 49.8038 173.988 49.9384C173.897 50.1402 173.806 50.3364 173.705 50.5327C173.55 50.8017 173.391 51.0651 173.216 51.3173C173.041 51.5582 172.851 51.7878 172.656 52.0063C172.424 52.247 172.182 52.471 171.93 52.6836C171.694 52.8683 171.447 53.0416 171.196 53.2038C170.944 53.3491 170.688 53.4832 170.426 53.606C170.05 53.7566 169.669 53.8903 169.283 54.0072C168.793 54.1351 168.303 54.2349 167.809 54.3122C167.168 54.3892 166.534 54.4269 165.895 54.4365C165.11 54.4232 164.332 54.3651 163.559 54.2734C162.47 54.119 161.397 53.8918 160.336 53.6028C158.938 53.2007 157.568 52.7033 156.22 52.1273C156.266 52.1443 156.307 52.1612 156.349 52.1838C154.613 51.4216 152.931 50.5473 151.302 49.5608C151.343 49.589 151.379 49.6116 151.421 49.6397C149.839 48.6646 148.325 47.5943 146.865 46.4286C144.871 44.7957 142.998 43.0116 141.152 41.1995C139.547 39.6237 137.952 38.0367 136.347 36.4722C134.731 34.902 133.099 33.3486 131.436 31.84C129.757 30.3202 128.031 28.8564 126.273 27.4374C126.278 27.443 126.283 27.4486 126.294 27.4543C124.34 25.8832 122.35 24.3682 120.327 22.9037C118.217 21.3771 116.065 19.901 113.854 18.5595C111.107 16.8966 108.184 15.5813 105.081 14.8718C103.713 14.5596 102.297 14.4213 100.893 14.457C99.6198 14.4818 98.3646 14.6975 97.1335 15.0593C95.3548 15.5768 93.7099 16.5718 92.2954 17.8255C90.9072 19.0569 89.8097 20.6932 89.095 22.4539C88.821 23.1268 88.5935 23.8223 88.4126 24.5235C88.0864 24.4441 87.7601 24.3647 87.4337 24.2909C85.6518 23.8766 83.8427 23.5576 82.0211 23.3958C80.4434 23.2515 78.8589 23.2363 77.275 23.1649C75.2602 23.0756 73.2567 22.9133 71.2547 22.6444C71.3014 22.6501 71.348 22.6615 71.3947 22.6672C69.1023 22.3471 66.8432 21.8698 64.6069 21.2467C61.8843 20.4652 59.2213 19.4985 56.602 18.3749C56.6485 18.3974 56.6898 18.4144 56.7311 18.4369C53.1873 16.8899 49.7776 15.0401 46.4426 13.0334C46.4581 13.039 46.4736 13.0503 46.4838 13.0615C43.8398 11.4551 41.2385 9.76451 38.5731 8.19727C37.2946 7.44747 35.9999 6.73691 34.6786 6.0712C33.4037 5.43367 32.0916 4.86341 30.7737 4.33242C28.2982 3.33821 25.7525 2.53468 23.1842 1.8658C21.0095 1.29896 18.8075 0.833088 16.5875 0.535568C13.9994 0.192206 11.38 0.23608 8.81109 0.779655C6.09632 1.35093 3.48986 2.37153 0.944096 3.51578C0.395221 3.76137 0.187504 4.52985 0.429605 5.07495C0.555806 5.35031 0.786702 5.56982 1.06079 5.66594C1.34009 5.76207 1.61598 5.72348 1.88776 5.60629C2.10732 5.50581 2.33209 5.40534 2.55679 5.31049C2.50981 5.32721 2.46795 5.34955 2.42097 5.36627C4.083 4.64077 5.77515 3.99394 7.50701 3.48753C7.47575 3.49306 7.44444 3.50421 7.40798 3.50973C7.44451 3.49859 7.48104 3.48746 7.51746 3.48194C8.55016 3.19267 9.59759 2.96519 10.6596 2.81072C11.5081 2.7006 12.3506 2.641 13.2029 2.63193C14.3615 2.64049 15.5189 2.73885 16.6651 2.89331C16.634 2.88762 16.6028 2.88754 16.5717 2.88185C18.9989 3.2248 21.3868 3.77535 23.7527 4.42687C23.7113 4.40992 23.6647 4.39858 23.6181 4.38724C26.1909 5.10664 28.7305 5.97191 31.2054 7.01663C33.7729 8.12895 36.2283 9.47113 38.6406 10.9198C41.2848 12.5151 43.881 14.2 46.5411 15.7673C49.2578 17.3795 52.0385 18.8685 54.9102 20.1556C57.7509 21.4314 60.6566 22.5109 63.6275 23.3828C66.531 24.2378 69.4955 24.801 72.4942 25.1454C74.6213 25.3866 76.7556 25.4818 78.8849 25.5602C80.3857 25.6201 81.876 25.6913 83.3647 25.8859C84.9204 26.1144 86.4646 26.4326 87.9922 26.8182C87.7226 29.1021 87.8938 31.4489 88.42 33.673C88.6712 34.7009 89.0009 35.6897 89.4193 36.6562C89.8275 37.6003 90.356 38.4885 90.9476 39.3207C92.0237 40.8334 93.3566 42.1784 94.8919 43.159C96.185 43.9874 97.6009 44.5691 99.0881 44.8704C99.7463 45.0012 100.411 45.0534 101.081 45.0551C101.647 45.0509 102.23 44.9963 102.783 44.8405C103.857 44.5401 104.858 43.9252 105.459 42.8939C106.081 41.8121 106.192 40.5438 106.026 39.3197C105.838 37.8822 105.237 36.5504 104.558 35.3138C104.177 34.6224 103.739 33.9645 103.28 33.3234C102.811 32.6711 102.31 32.0468 101.767 31.4616C99.303 28.8228 96.1628 27.0186 92.8635 25.8427C92.093 25.5657 91.3066 25.3167 90.525 25.0902C90.5253 25.0677 90.5307 25.0509 90.5362 25.0284C90.6729 24.5236 90.8354 24.0301 91.0186 23.5422C91.1851 23.1384 91.367 22.746 91.5645 22.3536C91.7722 21.978 91.9953 21.6137 92.2339 21.2551C92.5197 20.8629 92.8261 20.4876 93.1531 20.1291C93.4534 19.8212 93.7638 19.5301 94.0897 19.2502C94.4994 18.9257 94.9138 18.6293 95.3487 18.3609C95.7258 18.1374 96.1078 17.9363 96.4999 17.752C96.9964 17.54 97.4924 17.3616 98.0037 17.2057C98.5407 17.0668 99.0773 16.9615 99.624 16.8787C100.212 16.8128 100.794 16.7806 101.387 16.7765C102.026 16.7893 102.659 16.8415 103.297 16.9217C104.101 17.0416 104.894 17.2064 105.686 17.4161C106.752 17.7219 107.786 18.1006 108.809 18.5298C108.778 18.5129 108.747 18.5016 108.721 18.4903C110.023 19.0549 111.277 19.7092 112.509 20.4309C114.679 21.7442 116.78 23.1809 118.844 24.6625C120.892 26.1383 122.898 27.659 124.867 29.2413C124.959 29.3089 125.047 29.3821 125.139 29.4553C125.134 29.4496 125.129 29.4496 125.124 29.444C127.046 31.0037 128.926 32.6251 130.759 34.3081C132.637 36.0305 134.469 37.809 136.289 39.593C138.069 41.3432 139.833 43.1102 141.633 44.8324C143.973 47.0668 146.439 49.1556 149.123 50.9025C151.59 52.5141 154.211 53.8792 156.941 54.9189C159.443 55.8795 162.073 56.5654 164.747 56.7294C165.121 56.7471 165.495 56.7649 165.869 56.7659C167.838 56.7709 169.837 56.456 171.637 55.5681Z" fill="#F06A8A"/>
</svg>
