<svg width="303" height="176" viewBox="0 0 303 176" fill="none" xmlns="http://www.w3.org/2000/svg">
<mask id="mask0_64_170" style="mask-type:luminance" maskUnits="userSpaceOnUse" x="0" y="0" width="303" height="176">
<path d="M280.3 0L0.242804 123.545L22.3057 175.065L302.363 51.5201L280.3 0Z" fill="white"/>
</mask>
<g mask="url(#mask0_64_170)">
<path d="M128.648 113.043C128.315 113.19 127.976 113.308 127.633 113.417C127.242 113.522 126.853 113.602 126.456 113.666C126.009 113.729 125.552 113.758 125.099 113.768C124.662 113.764 124.221 113.738 123.783 113.692C123.285 113.624 122.789 113.523 122.302 113.401C121.787 113.254 121.282 113.078 120.777 112.877C120.195 112.625 119.622 112.343 119.065 112.019C118.579 111.73 118.114 111.408 117.66 111.062C117.223 110.714 116.811 110.344 116.41 109.95C115.962 109.485 115.539 108.997 115.139 108.487C115.112 108.45 115.087 108.418 115.062 108.386C115.062 108.386 115.062 108.386 115.064 108.391C114.645 107.821 114.257 107.232 113.897 106.629C113.545 106.006 113.224 105.374 112.934 104.723C112.76 104.303 112.602 103.882 112.456 103.462C113.745 103.292 115.037 103.182 116.339 103.159C117.288 103.158 118.233 103.214 119.179 103.324C120.078 103.443 120.968 103.608 121.847 103.84C122.521 104.028 123.189 104.254 123.842 104.525C124.559 104.828 125.259 105.182 125.939 105.581C126.63 105.994 127.306 106.438 127.95 106.939C128.341 107.258 128.72 107.588 129.077 107.946C129.298 108.173 129.505 108.419 129.708 108.667C129.846 108.858 129.979 109.063 130.105 109.265C130.192 109.429 130.277 109.6 130.355 109.768C130.405 109.887 130.447 110.01 130.488 110.133C130.518 110.242 130.543 110.354 130.561 110.463C130.575 110.548 130.585 110.624 130.592 110.707C130.59 110.793 130.592 110.878 130.588 110.96C130.579 111.031 130.57 111.103 130.556 111.176C130.536 111.247 130.522 111.32 130.499 111.386C130.471 111.466 130.438 111.548 130.398 111.626C130.357 111.7 130.312 111.769 130.271 111.842C130.207 111.932 130.134 112.013 130.064 112.099C129.972 112.189 129.881 112.278 129.787 112.363C129.636 112.484 129.478 112.591 129.32 112.697C129.103 112.824 128.881 112.94 128.648 113.043ZM198.39 96.1175C199.754 94.4851 200.48 92.2874 200.448 90.0745C200.437 89.0855 200.104 88.1221 199.643 87.2578C199.375 86.7627 199.087 86.2761 198.73 85.8508C198.345 85.3885 197.926 84.9782 197.481 84.5855C196.513 83.7366 195.419 83.1088 194.298 82.5359C193.072 81.9172 191.797 81.3938 190.52 80.9202C187.834 79.9147 185.093 79.1362 182.345 78.367C179.713 77.6323 177.076 76.9121 174.523 75.8727C173.624 75.49 172.75 75.0595 171.896 74.571C171.349 74.2421 170.811 73.8841 170.305 73.4939C170.307 73.4991 170.314 73.5022 170.323 73.5104C170.314 73.5022 170.305 73.4939 170.296 73.4857C170.263 73.4631 170.231 73.4406 170.204 73.4159C170.224 73.4375 170.254 73.4549 170.275 73.4765C169.854 73.1407 169.453 72.784 169.066 72.4086C168.727 72.0671 168.413 71.7151 168.117 71.3423C167.845 70.9838 167.595 70.6097 167.363 70.2272C167.184 69.9137 167.018 69.594 166.87 69.2731C166.735 68.9334 166.611 68.6021 166.507 68.255C166.402 67.8904 166.32 67.5277 166.248 67.1609C166.19 66.7877 166.148 66.4134 166.118 66.0401C166.109 65.7804 166.111 65.5217 166.118 65.261C166.141 65.0239 166.175 64.7878 166.215 64.5496C166.275 64.3082 166.347 64.0677 166.422 63.8324C166.561 63.4705 166.713 63.1272 166.873 62.7869C167.098 62.35 167.342 61.9295 167.609 61.5234C167.973 61.0009 168.365 60.503 168.788 60.0277C169.267 59.522 169.766 59.0504 170.292 58.6035C171.022 58.0115 171.776 57.4763 172.56 56.971C173.597 56.3421 174.664 55.7854 175.765 55.2813C177.355 54.586 178.989 54.0064 180.653 53.5238C182.745 52.9446 184.863 52.5193 187.011 52.1912C189.791 51.7931 192.601 51.5046 195.423 51.456C201.987 51.4745 208.55 52.3093 215.093 53.1349C215.062 53.1299 215.027 53.127 214.997 53.122C215.109 53.1338 215.217 53.1476 215.327 53.1667C215.325 53.1615 215.325 53.1615 215.32 53.1636C215.977 53.2477 216.635 53.3318 217.291 53.4107C217.621 53.4554 217.953 53.4927 218.283 53.5374C218.288 53.5353 218.29 53.5404 218.295 53.5383C218.344 53.5473 218.386 53.5533 218.433 53.5572C218.461 53.557 218.492 53.562 218.515 53.5639C218.545 53.5689 218.583 53.577 218.618 53.5799C218.623 53.5778 218.63 53.5808 218.637 53.5839C218.672 53.5868 218.714 53.5928 218.749 53.5957C219.088 53.6361 219.423 53.6786 219.758 53.7212C221.209 53.903 222.665 54.0828 224.119 54.245C225.498 54.4035 226.874 54.5269 228.252 54.643C229.632 54.7642 231.008 54.8627 232.383 54.9064C235.258 54.9941 238.131 54.9845 240.996 54.8798C242.614 54.8165 244.232 54.7284 245.853 54.6206C247.453 54.5161 249.046 54.3412 250.629 54.1457C253.806 53.7505 256.962 53.2416 260.076 52.5674C262.998 51.9347 265.903 51.2483 268.796 50.4813C271.87 49.6594 274.941 48.795 277.972 47.8078C280.865 46.869 283.743 45.8693 286.595 44.82C289.37 43.7919 292.074 42.5562 294.772 41.3475C296.199 40.706 297.625 40.0644 299.03 39.3713C300.429 38.6802 301.807 37.9375 303.173 37.1815C303.85 36.8092 304.52 36.4214 305.186 36.0358C305.501 35.8601 305.811 35.6741 306.114 35.4851C306.255 35.4046 306.398 35.3168 306.532 35.2333C306.621 35.1758 306.711 35.1236 306.8 35.0662C306.867 35.0244 306.938 34.9805 307.005 34.9387C308.154 34.2295 309.266 33.4749 310.386 32.7234C311.431 32.0231 312.479 31.303 313.45 30.4945C313.966 30.0641 314.511 29.6212 314.905 29.0613C314.919 29.0425 314.936 29.0166 314.954 28.9906C314.963 28.974 314.978 28.9553 314.988 28.9387C315.285 28.4703 315.153 27.7924 314.742 27.4275C314.295 27.0297 313.545 27.0351 313.198 27.5317C313.128 27.6304 313.05 27.726 312.97 27.8165C312.677 28.1235 312.355 28.4006 312.031 28.6725C311.09 29.4312 310.101 30.1188 309.097 30.7952C307.999 31.531 306.898 32.2741 305.773 32.9729C305.609 33.0763 305.444 33.1797 305.284 33.281C305.31 33.2632 305.336 33.2455 305.367 33.2256C303.364 34.4344 301.325 35.5979 299.241 36.6582C297.067 37.7708 294.849 38.7677 292.619 39.7637C292.662 39.7448 292.704 39.7259 292.747 39.707C291.202 40.3886 289.662 41.0681 288.108 41.7166C286.458 42.4018 284.785 43.0107 283.107 43.6041C279.676 44.8047 276.232 45.9619 272.743 46.9735C272.788 46.9598 272.833 46.9461 272.878 46.9324C269.744 47.8239 266.595 48.6794 263.418 49.4305C261.846 49.7987 260.273 50.1494 258.69 50.4794C256.925 50.8591 255.142 51.1551 253.354 51.4283C253.359 51.4262 253.371 51.4272 253.375 51.4251C250.704 51.8122 248.034 52.1496 245.33 52.3299C242.737 52.5044 240.134 52.6159 237.531 52.6477C237.578 52.6515 237.623 52.6502 237.672 52.6468C234.884 52.6683 232.104 52.6308 229.315 52.4133C226.474 52.194 223.64 51.8857 220.81 51.5329C220.155 51.454 219.504 51.373 218.853 51.2919C218.725 51.2689 218.591 51.2604 218.465 51.2425C218.434 51.2375 218.404 51.2325 218.371 51.2348C218.153 51.2019 217.929 51.1784 217.711 51.1455C216.941 51.0497 216.164 50.9507 215.394 50.8549C215.424 50.8599 215.459 50.8628 215.485 50.8699C209.654 50.1353 203.811 49.3997 197.957 49.1908C196.467 49.1426 194.974 49.1265 193.485 49.2004C192.1 49.2655 190.72 49.408 189.342 49.5558C186.584 49.8461 183.856 50.3132 181.168 50.9776C178.338 51.6677 175.585 52.6978 173.001 54.0404C170.619 55.2752 168.414 56.9104 166.653 58.9879C165.794 60.0048 165.074 61.1875 164.559 62.4393C164.328 62.9952 164.141 63.5747 164.031 64.1754C163.903 64.827 163.88 65.512 163.932 66.1884C164.031 67.4759 164.298 68.7573 164.794 69.9557C165.286 71.1436 165.977 72.2436 166.804 73.2102C169.592 76.4893 173.593 78.1233 177.471 79.3267C179.779 80.0447 182.109 80.6549 184.426 81.3263C186.796 82.017 189.15 82.7761 191.45 83.7249C192.52 84.179 193.568 84.6736 194.589 85.2481C194.954 85.4674 195.305 85.7054 195.652 85.963C196.029 86.2629 196.39 86.5764 196.74 86.9189C196.868 87.0588 196.993 87.206 197.113 87.3554C197.272 87.5676 197.421 87.784 197.558 88.0118C197.713 88.281 197.849 88.5585 197.98 88.8381C198.033 88.9744 198.085 89.1106 198.126 89.2459C198.156 89.3678 198.183 89.4846 198.213 89.6065C198.226 89.742 198.239 89.8774 198.254 90.0181C198.252 90.2395 198.249 90.4557 198.236 90.6762C198.204 90.9847 198.165 91.2901 198.108 91.5916C198.046 91.8827 197.965 92.1697 197.876 92.4486C197.762 92.7627 197.631 93.0656 197.487 93.3624C197.346 93.627 197.191 93.8856 197.027 94.1359C196.856 94.3707 196.676 94.5973 196.487 94.8157C196.205 95.106 195.911 95.3829 195.605 95.6465C195.209 95.9623 194.802 96.2523 194.382 96.5238C193.828 96.854 193.263 97.1459 192.683 97.4142C191.961 97.7205 191.226 97.9835 190.482 98.2134C189.424 98.5145 188.352 98.7422 187.264 98.9089C185.824 99.1087 184.37 99.2104 182.904 99.2314C182.953 99.228 182.998 99.2267 183.044 99.2305C181.149 99.2385 179.257 99.1223 177.368 98.882C177.417 98.891 177.459 98.897 177.508 98.906C175.666 98.6571 173.849 98.2932 172.041 97.8206C169.556 97.1378 167.12 96.2674 164.697 95.3608C162.591 94.5723 160.489 93.7693 158.387 92.9911C156.273 92.212 154.151 91.4547 152.019 90.7512C149.867 90.0437 147.696 89.4066 145.513 88.8234C145.52 88.8265 145.527 88.8296 145.539 88.8305C143.116 88.1877 140.681 87.6112 138.239 87.0937C135.691 86.5551 133.125 86.0797 130.559 85.7512C127.374 85.3467 124.168 85.3313 121.044 85.9424C119.668 86.2122 118.317 86.6609 117.049 87.2632C115.895 87.8028 114.836 88.5095 113.857 89.3398C112.442 90.5348 111.343 92.1118 110.559 93.8319C109.79 95.5208 109.451 97.4617 109.513 99.3609C109.536 100.087 109.61 100.815 109.729 101.529C109.399 101.589 109.068 101.649 108.74 101.714C106.944 102.059 105.161 102.502 103.43 103.093C101.93 103.602 100.476 104.231 98.9991 104.809C97.1215 105.545 95.2246 106.21 93.2858 106.777C93.3308 106.763 93.378 106.755 93.423 106.741C91.198 107.379 88.9397 107.86 86.643 108.198C83.8375 108.589 81.0115 108.787 78.1615 108.823C78.2131 108.825 78.2578 108.824 78.3047 108.827C74.4381 108.852 70.571 108.546 66.7085 108.065C66.725 108.064 66.7437 108.068 66.7576 108.075C63.6891 107.68 60.6255 107.191 57.5534 106.84C56.0806 106.674 54.6089 106.55 53.1312 106.478C51.7073 106.413 50.2766 106.425 48.8567 106.474C46.1907 106.571 43.538 106.87 40.9194 107.301C38.7018 107.666 36.5002 108.134 34.3506 108.763C31.8459 109.5 29.4699 110.603 27.3428 112.143C25.0937 113.767 23.1259 115.758 21.2638 117.837C20.8619 118.284 20.984 119.071 21.4265 119.471C21.6537 119.671 21.9538 119.778 22.2433 119.754C22.5376 119.729 22.774 119.582 22.9748 119.364C23.1347 119.183 23.2994 119 23.4662 118.822C23.4301 118.857 23.4009 118.894 23.3647 118.928C24.5891 117.591 25.873 116.313 27.2502 115.147C27.2239 115.165 27.1998 115.187 27.1687 115.207C27.1976 115.182 27.2264 115.157 27.2575 115.137C28.0839 114.454 28.9488 113.821 29.8567 113.249C30.5873 112.803 31.3332 112.407 32.1084 112.053C33.1707 111.59 34.2683 111.21 35.3786 110.886C35.3479 110.894 35.3193 110.906 35.2886 110.914C37.646 110.242 40.0519 109.776 42.4785 109.411C42.4338 109.412 42.3866 109.42 42.3394 109.429C44.9827 109.042 47.6549 108.802 50.3408 108.752C53.1388 108.726 55.9276 108.956 58.7203 109.301C61.7844 109.686 64.841 110.172 67.9083 110.524C71.0456 110.895 74.1913 111.127 77.3383 111.137C80.4523 111.15 83.546 110.957 86.615 110.548C89.6156 110.151 92.5535 109.462 95.4338 108.56C97.4757 107.916 99.4649 107.137 101.443 106.344C102.839 105.79 104.229 105.25 105.669 104.824C107.184 104.401 108.724 104.065 110.277 103.797C110.957 105.994 112.066 108.069 113.45 109.888C114.097 110.725 114.8 111.495 115.574 112.209C116.331 112.906 117.174 113.503 118.053 114.024C119.65 114.969 121.414 115.657 123.215 115.93C124.733 116.162 126.264 116.119 127.745 115.791C128.4 115.643 129.028 115.421 129.641 115.151C130.157 114.917 130.668 114.63 131.11 114.264C131.97 113.553 132.634 112.585 132.765 111.398C132.895 110.157 132.481 108.953 131.833 107.902C131.077 106.664 129.987 105.691 128.864 104.837C128.236 104.359 127.569 103.936 126.889 103.536C126.195 103.131 125.484 102.763 124.75 102.449C121.427 101.038 117.825 100.663 114.332 100.928C113.516 100.988 112.696 101.079 111.89 101.19C111.881 101.169 111.879 101.151 111.875 101.129C111.795 100.612 111.743 100.095 111.712 99.5746C111.701 99.1381 111.708 98.7055 111.729 98.2667C111.766 97.8392 111.822 97.4157 111.895 96.9911C111.997 96.5166 112.124 96.0493 112.278 95.589C112.427 95.1856 112.593 94.7936 112.777 94.4055C113.02 93.9427 113.278 93.5035 113.567 93.0817C113.82 92.7243 114.088 92.3855 114.371 92.0579C114.739 91.6626 115.12 91.2982 115.524 90.9482C115.958 90.6032 116.406 90.2892 116.872 89.9916C117.383 89.6927 117.902 89.4268 118.442 89.1826C119.031 88.935 119.631 88.7256 120.246 88.5399C121.03 88.3232 121.821 88.152 122.63 88.0221C123.729 87.8687 124.828 87.795 125.937 87.772C125.902 87.7691 125.869 87.7713 125.84 87.7715C127.259 87.7591 128.671 87.8481 130.09 88.0074C132.606 88.3268 135.109 88.7871 137.597 89.3033C140.068 89.8206 142.518 90.396 144.96 91.0429C145.072 91.067 145.182 91.0985 145.296 91.1278C145.289 91.1248 145.284 91.1269 145.277 91.1238C147.667 91.7689 150.044 92.4875 152.401 93.2817C154.818 94.0932 157.213 94.9752 159.601 95.8665C161.938 96.7437 164.267 97.6426 166.612 98.4856C169.657 99.5779 172.759 100.486 175.92 100.993C178.83 101.464 181.779 101.648 184.696 101.49C187.372 101.352 190.055 100.911 192.565 99.9756C192.914 99.8401 193.263 99.7046 193.605 99.5536C195.407 98.7588 197.106 97.6594 198.39 96.1175Z" fill="white"/>
</g>
</svg>
