<svg width="197" height="193" viewBox="0 0 197 193" fill="none" xmlns="http://www.w3.org/2000/svg">
<path d="M172.995 45.7278C169.047 45.7603 168.095 49.3397 164.44 52.5906C159.177 57.3641 160.053 61.6832 163.244 62.6455C166.434 63.6078 169.187 60.0454 172.721 60.3352C176.207 60.3915 178.881 64.1218 182.063 63.2665C185.268 62.5279 186.309 58.2037 181.204 53.1222C177.771 49.7809 176.898 46.0677 172.995 45.7278Z" fill="#EACE6A"/>
<path d="M162.891 42.0255C164.938 45.3695 165.144 49.1971 163.368 50.5702C161.483 51.9645 158.311 50.3841 156.263 47.04C154.216 43.696 154.011 39.8685 155.786 38.4953C157.671 37.1011 160.844 38.6815 162.891 42.0255Z" fill="#EACE6A"/>
<path d="M182.463 42.7839C180.206 45.7854 179.978 49.3739 181.83 50.8508C183.681 52.3277 187.033 51.1933 189.29 48.1918C191.547 45.1903 191.775 41.6018 189.923 40.1249C187.957 38.6702 184.605 39.8046 182.463 42.7839Z" fill="#EACE6A"/>
<path d="M172.005 35.0395C172.716 39.1308 171.199 42.7542 168.779 43.0922C166.358 43.4302 163.833 40.329 163.122 36.2377C162.411 32.1465 163.928 28.523 166.349 28.185C168.769 27.847 171.294 30.9483 172.005 35.0395Z" fill="#EACE6A"/>
<path d="M174.105 34.9869C173.37 38.7587 174.745 42.1243 177.037 42.6198C179.44 43.0939 181.915 40.5093 182.673 36.8502C183.408 33.0784 182.033 29.7128 179.741 29.2173C177.426 28.6092 174.84 31.2151 174.105 34.9869Z" fill="#EACE6A"/>
<path d="M43.007 38.5777C39.8607 40.9525 41.1402 44.468 40.0655 49.3203C38.5701 56.3841 41.7369 59.422 44.8441 58.3171C47.9514 57.2121 48.1253 52.6396 51.1237 50.7765C53.9509 48.7493 58.2231 50.2327 60.2859 47.6355C62.4342 45.1204 60.8006 40.9385 53.8085 39.7875C49.1491 39.0766 46.3304 36.536 43.007 38.5777Z" fill="#EACE6A"/>
<path d="M32.7944 41.5361C36.344 43.0738 38.6931 46.1053 38.0534 48.2927C37.3378 50.5627 33.8923 51.1476 30.3428 49.6098C26.7933 48.072 24.4442 45.0405 25.0838 42.8532C25.7994 40.5832 29.2449 39.9983 32.7944 41.5361Z" fill="#EACE6A"/>
<path d="M48.918 30.5202C48.8214 34.3358 50.6868 37.428 53.0141 37.5436C55.3414 37.6592 57.3813 34.7307 57.4779 30.9152C57.5745 27.0996 55.7091 24.0074 53.3818 23.8918C50.975 23.8628 48.9351 26.7913 48.918 30.5202Z" fill="#EACE6A"/>
<path d="M36.1155 30.359C39.0202 33.3072 39.8717 37.1953 38.1241 38.9134C36.3765 40.6315 32.5823 39.5781 29.6775 36.6299C26.7727 33.6817 25.9213 29.7937 27.6689 28.0755C29.4165 26.3574 33.2107 27.4109 36.1155 30.359Z" fill="#EACE6A"/>
<path d="M37.7685 29.0669C39.3318 32.6118 42.3544 34.5674 44.4748 33.6123C46.6719 32.5736 47.1812 28.9719 45.7005 25.5063C44.1371 21.9614 41.1145 20.0057 38.9942 20.9608C36.7912 21.8366 36.2051 25.522 37.7685 29.0669Z" fill="#EACE6A"/>
<path d="M65.7768 131.089C58.7986 126.831 53.0068 132 42.841 133.645C28.0953 136.173 24.6657 144.622 29.1684 149.779C33.6712 154.935 42.6096 151.764 48.4891 156.128C54.5539 160.036 54.9627 169.429 61.5408 171.422C68.0262 173.644 74.8308 167.281 71.7029 152.888C69.5106 143.339 72.2485 135.945 65.7768 131.089Z" fill="#F06A8A"/>
<path d="M52.273 113.627C52.0247 121.665 47.9823 128.529 43.2813 128.97C38.3629 129.329 34.603 123.12 34.8513 115.082C35.0996 107.045 39.142 100.181 43.843 99.7389C48.7614 99.3805 52.5213 105.589 52.273 113.627Z" fill="#F06A8A"/>
<path d="M85.8096 136.33C78.3881 139.07 73.8592 145.046 75.4154 149.631C76.9716 154.216 84.1701 155.912 91.5917 153.172C99.0133 150.432 103.542 144.456 101.986 139.871C100.202 135.198 93.0037 133.503 85.8096 136.33Z" fill="#F06A8A"/>
<path d="M76.3353 111.469C72.8781 119.343 66.0416 123.97 61.3973 121.911C56.7529 119.852 55.8815 111.713 59.3386 103.839C62.7957 95.9653 69.6323 91.3382 74.2766 93.3971C78.921 95.456 79.7924 103.595 76.3353 111.469Z" fill="#F06A8A"/>
<path d="M80.0856 113.673C74.4541 119.413 72.9983 126.753 76.4582 130.117C80.1378 133.566 87.463 131.787 93.005 126.268C98.6366 120.529 100.092 113.189 96.6325 109.824C93.2621 106.239 85.7172 107.933 80.0856 113.673Z" fill="#F06A8A"/>
</svg>
