<svg width="156" height="155" viewBox="0 0 156 155" fill="none" xmlns="http://www.w3.org/2000/svg">
<path d="M131.625 87.2455C127.802 88.2324 127.745 91.9358 124.986 95.9745C121.034 101.88 122.929 105.859 126.258 106.02C129.587 106.182 131.396 102.059 134.894 101.485C138.291 100.696 141.788 103.668 144.668 102.068C147.599 100.576 147.562 96.1284 141.38 92.4333C137.24 90.0222 135.494 86.6306 131.625 87.2455Z" fill="#EACE6A"/>
<path d="M120.925 86.0979C123.721 88.8471 124.846 92.5111 123.456 94.273C121.965 96.0821 118.504 95.3165 115.708 92.5673C112.913 89.8181 111.787 86.1541 113.177 84.3922C114.668 82.5831 118.129 83.3487 120.925 86.0979Z" fill="#EACE6A"/>
<path d="M140.098 82.0977C138.635 85.5562 139.282 89.0931 141.437 90.0779C143.591 91.0628 146.568 89.1509 148.032 85.6924C149.495 82.2339 148.848 78.697 146.694 77.7121C144.434 76.7766 141.456 78.6885 140.098 82.0977Z" fill="#EACE6A"/>
<path d="M128.078 77.1142C129.758 80.9118 129.162 84.7947 126.896 85.7084C124.629 86.6221 121.428 84.2242 119.748 80.4266C118.068 76.6291 118.664 72.7461 120.93 71.8324C123.197 70.9187 126.398 73.3167 128.078 77.1142Z" fill="#EACE6A"/>
<path d="M130.103 76.5549C130.303 80.3924 132.451 83.3254 134.795 83.2514C137.241 83.1298 139.017 80.023 138.867 76.2893C138.667 72.4518 136.519 69.5189 134.175 69.5929C131.781 69.5631 129.903 72.7174 130.103 76.5549Z" fill="#EACE6A"/>
<path d="M20.8078 19.3843C17.6615 21.7591 18.941 25.2746 17.8662 30.127C16.3708 37.1907 19.5377 40.2286 22.6449 39.1237C25.7522 38.0188 25.9261 33.4462 28.9245 31.5832C31.7517 29.5559 36.0239 31.0393 38.0866 28.4421C40.235 25.927 38.6014 21.7451 31.6093 20.5942C26.9498 19.8832 24.1312 17.3427 20.8078 19.3843Z" fill="#EACE6A"/>
<path d="M10.5952 22.343C14.1447 23.8807 16.4939 26.9122 15.8542 29.0995C15.1386 31.3696 11.6931 31.9545 8.14359 30.4167C4.59406 28.8789 2.24496 25.8474 2.88459 23.6601C3.60019 21.3901 7.04568 20.8052 10.5952 22.343Z" fill="#EACE6A"/>
<path d="M26.7188 11.3269C26.6222 15.1425 28.4876 18.2347 30.8149 18.3502C33.1422 18.4658 35.1821 15.5374 35.2787 11.7218C35.3753 7.90623 33.5099 4.81403 31.1826 4.69845C28.7758 4.66946 26.7359 7.59789 26.7188 11.3269Z" fill="#EACE6A"/>
<path d="M13.9162 11.1657C16.821 14.1139 17.6724 18.0019 15.9249 19.72C14.1773 21.4381 10.3831 20.3847 7.47829 17.4366C4.57352 14.4884 3.72209 10.6003 5.46967 8.88219C7.21726 7.16406 11.0115 8.2175 13.9162 11.1657Z" fill="#EACE6A"/>
<path d="M15.5692 9.8735C17.1326 13.4184 20.1552 15.374 22.2755 14.419C24.4727 13.3803 24.982 9.77853 23.5013 6.3129C21.9379 2.76799 18.9153 0.812353 16.795 1.76743C14.592 2.64323 14.0059 6.3286 15.5692 9.8735Z" fill="#EACE6A"/>
<path d="M43.5775 111.896C36.5994 107.638 30.8076 112.807 20.6418 114.452C5.89611 116.98 2.46644 125.429 6.96922 130.585C11.472 135.742 20.4104 132.571 26.2898 136.935C32.3547 140.843 32.7634 150.236 39.3415 152.229C45.827 154.451 52.6315 148.087 49.5036 133.695C47.3114 124.146 50.0493 116.752 43.5775 111.896Z" fill="#35BDBA"/>
<path d="M30.0737 94.4336C29.8254 102.471 25.7831 109.335 21.0821 109.777C16.1637 110.136 12.4038 103.927 12.6521 95.889C12.9004 87.8512 16.9428 80.9872 21.6438 80.5455C26.5622 80.1871 30.322 86.3958 30.0737 94.4336Z" fill="#35BDBA"/>
<path d="M63.6104 117.137C56.1889 119.876 51.6599 125.852 53.2162 130.438C54.7724 135.023 61.9709 136.718 69.3925 133.979C76.814 131.239 81.343 125.263 79.7867 120.678C78.003 116.005 70.8045 114.31 63.6104 117.137Z" fill="#35BDBA"/>
<path d="M54.1361 92.2757C50.6789 100.149 43.8424 104.777 39.1981 102.718C34.5537 100.659 33.6822 92.5197 37.1394 84.6459C40.5965 76.7722 47.4331 72.1451 52.0774 74.204C56.7218 76.2629 57.5932 84.4019 54.1361 92.2757Z" fill="#35BDBA"/>
<path d="M57.8864 94.4799C52.2548 100.219 50.7991 107.56 54.259 110.924C57.9386 114.373 65.2638 112.594 70.8058 107.075C76.4374 101.336 77.8931 93.9954 74.4333 90.6311C71.0629 87.0462 63.5179 88.7403 57.8864 94.4799Z" fill="#35BDBA"/>
</svg>
